<svg width="100" height="100" viewBox="0 0 100 100" fill="none" xmlns="http://www.w3.org/2000/svg">
<path d="M12.2222 50.9151C12.2222 49.2042 13.6092 47.8172 15.3202 47.8172H84.2525C85.9634 47.8172 87.3504 49.2042 87.3504 50.9151V50.9151C87.3504 52.6261 85.9634 54.0131 84.2525 54.0131H15.3202C13.6092 54.0131 12.2222 52.6261 12.2222 50.9151V50.9151ZM25.812 29.5691C25.812 27.8347 27.218 26.4287 28.9523 26.4287H77.6289C79.3632 26.4287 80.7692 27.8347 80.7692 29.5691V29.5691C80.7692 31.3035 79.3632 32.7095 77.6289 32.7095H28.9523C27.218 32.7095 25.812 31.3035 25.812 29.5691V29.5691ZM46.3248 15.3761C46.3248 13.5115 47.8363 12 49.7009 12V12C51.5654 12 53.0769 13.5115 53.0769 15.3761V86.6239C53.0769 88.4885 51.5654 90 49.7009 90V90C47.8363 90 46.3248 88.4885 46.3248 86.6239V15.3761ZM27.7784 16.9923C28.3407 15.3374 30.04 14.3269 31.7473 14.7012V14.7012C33.657 15.1198 34.8026 17.0867 34.1449 18.9279C31.0534 27.5826 26.6732 35.7426 22.01 41.7149C21.0983 42.8826 19.5251 43.1484 18.2291 42.4306V42.4306C16.459 41.4502 15.8253 38.9057 17.0852 37.3223C21.4935 31.7822 25.2248 24.5084 27.7784 16.9923ZM43.1978 52.1747C43.9932 51.0014 45.4941 50.504 46.8057 51.0415V51.0415C48.4414 51.7118 49.099 53.6824 48.1179 55.1528C40.394 66.7285 28.443 77.44 17.0247 83.7985C15.7553 84.5054 14.2324 84.1772 13.3134 83.0519V83.0519C11.9463 81.3779 12.3366 78.5226 14.2498 77.5173C25.2832 71.7196 36.4884 62.0722 43.1978 52.1747ZM52.3282 51.0176C53.6488 50.4439 55.1839 50.911 56.0268 52.0783C62.9515 61.6682 74.4283 71.1111 85.6017 76.7056C87.5944 77.7034 88.1025 80.5719 86.7283 82.3262V82.3262C85.8047 83.5054 84.2093 83.9196 82.887 83.2162C71.2263 77.0131 59.0459 66.4038 51.0928 55.2702C50.0354 53.79 50.6598 51.7425 52.3282 51.0176V51.0176Z" fill="#F2CDCD"/>
</svg>
